<mxfile host="65bd71144e">
    <diagram id="C-pzGrcCiWmIcTeGXlm4" name="Página-1">
        <mxGraphModel dx="1690" dy="867" grid="1" gridSize="10" guides="1" tooltips="1" connect="1" arrows="1" fold="1" page="1" pageScale="1" pageWidth="827" pageHeight="1169" math="0" shadow="0">
            <root>
                <mxCell id="0"/>
                <mxCell id="1" parent="0"/>
                <mxCell id="32" style="edgeStyle=none;html=1;exitX=0;exitY=0;exitDx=155;exitDy=255;exitPerimeter=0;entryX=0.551;entryY=0.355;entryDx=0;entryDy=0;entryPerimeter=0;" parent="1" source="17" target="3" edge="1">
                    <mxGeometry relative="1" as="geometry"/>
                </mxCell>
                <mxCell id="33" style="edgeStyle=none;html=1;exitX=0;exitY=0;exitDx=155;exitDy=415;exitPerimeter=0;entryX=0.075;entryY=0.487;entryDx=0;entryDy=0;entryPerimeter=0;" parent="1" source="17" target="3" edge="1">
                    <mxGeometry relative="1" as="geometry"/>
                </mxCell>
                <mxCell id="2" value="Untitled Layer" parent="0"/>
                <mxCell id="3" value="" style="rounded=0;whiteSpace=wrap;html=1;labelBorderColor=none;" parent="2" vertex="1">
                    <mxGeometry x="-50" y="10" width="880" height="360" as="geometry"/>
                </mxCell>
                <mxCell id="13" parent="0"/>
                <mxCell id="16" value="" style="group;" parent="13" vertex="1" connectable="0">
                    <mxGeometry x="340" y="40" width="415" height="300" as="geometry"/>
                </mxCell>
                <mxCell id="17" value="localhost:??" style="verticalAlign=top;align=center;spacingTop=8;spacingLeft=2;spacingRight=12;shape=cube;size=10;direction=south;fontStyle=4;html=1;whiteSpace=wrap;fillColor=#dae8fc;strokeColor=#6c8ebf;" parent="16" vertex="1">
                    <mxGeometry width="415" height="300" as="geometry"/>
                </mxCell>
                <mxCell id="18" value="«Component&lt;span style=&quot;background-color: initial;&quot;&gt;»&lt;/span&gt;&lt;div&gt;&lt;b&gt;MelmacBE&lt;/b&gt;&lt;/div&gt;" style="html=1;dropTarget=0;whiteSpace=wrap;" parent="16" vertex="1">
                    <mxGeometry x="65.09803921568627" y="60" width="276.6666666666667" height="90" as="geometry"/>
                </mxCell>
                <mxCell id="19" value="" style="shape=module;jettyWidth=8;jettyHeight=4;" parent="18" vertex="1">
                    <mxGeometry x="1" width="20" height="20" relative="1" as="geometry">
                        <mxPoint x="-27" y="7" as="offset"/>
                    </mxGeometry>
                </mxCell>
                <mxCell id="20" value="«Component&lt;span style=&quot;background-color: initial;&quot;&gt;»&lt;/span&gt;&lt;div&gt;&lt;b&gt;DriverRunner (iOS)&lt;/b&gt;&lt;/div&gt;" style="html=1;dropTarget=0;whiteSpace=wrap;" parent="16" vertex="1">
                    <mxGeometry x="65.09803921568627" y="180" width="276.6666666666667" height="90" as="geometry"/>
                </mxCell>
                <mxCell id="21" value="" style="shape=module;jettyWidth=8;jettyHeight=4;" parent="20" vertex="1">
                    <mxGeometry x="1" width="20" height="20" relative="1" as="geometry">
                        <mxPoint x="-27" y="7" as="offset"/>
                    </mxGeometry>
                </mxCell>
                <mxCell id="34" value="&lt;font style=&quot;font-size: 13px;&quot;&gt;http/s&lt;/font&gt;" style="edgeStyle=none;html=1;exitX=0;exitY=0;exitDx=155;exitDy=415;exitPerimeter=0;endArrow=none;endFill=0;entryX=0.516;entryY=0.002;entryDx=0;entryDy=0;entryPerimeter=0;" parent="13" source="17" target="36" edge="1">
                    <mxGeometry x="-0.0161" relative="1" as="geometry">
                        <mxPoint x="237" y="195" as="targetPoint"/>
                        <mxPoint as="offset"/>
                    </mxGeometry>
                </mxCell>
                <mxCell id="35" value="" style="group;" parent="13" vertex="1" connectable="0">
                    <mxGeometry x="20" y="40" width="215" height="300" as="geometry"/>
                </mxCell>
                <mxCell id="36" value="Client" style="verticalAlign=top;align=center;spacingTop=8;spacingLeft=2;spacingRight=12;shape=cube;size=10;direction=south;fontStyle=4;html=1;whiteSpace=wrap;fillColor=#dae8fc;strokeColor=#6c8ebf;" parent="35" vertex="1">
                    <mxGeometry width="215" height="300" as="geometry"/>
                </mxCell>
                <mxCell id="37" value="Console" style="html=1;dropTarget=0;whiteSpace=wrap;" parent="35" vertex="1">
                    <mxGeometry x="33.72549019607843" y="60" width="143.33333333333334" height="90" as="geometry"/>
                </mxCell>
                <mxCell id="39" value="CI/CD Pipeline" style="html=1;dropTarget=0;whiteSpace=wrap;" parent="35" vertex="1">
                    <mxGeometry x="33.72549019607843" y="180" width="143.33333333333334" height="90" as="geometry"/>
                </mxCell>
            </root>
        </mxGraphModel>
    </diagram>
</mxfile>